<?xml version="1.0" encoding="UTF-8" standalone="no"?>
<!-- Created with Inkscape (http://www.inkscape.org/) -->

<svg
   width="80.41674mm"
   height="126.90497mm"
   viewBox="0 0 80.416741 126.90496"
   version="1.1"
   id="svg7838"
   xml:space="preserve"
   inkscape:version="1.2.2 (b0a8486541, 2022-12-01)"
   sodipodi:docname="icon-questions.svg"
   xmlns:inkscape="http://www.inkscape.org/namespaces/inkscape"
   xmlns:sodipodi="http://sodipodi.sourceforge.net/DTD/sodipodi-0.dtd"
   xmlns="http://www.w3.org/2000/svg"
   xmlns:svg="http://www.w3.org/2000/svg"><sodipodi:namedview
     id="namedview7840"
     pagecolor="#ffffff"
     bordercolor="#000000"
     borderopacity="0.25"
     inkscape:showpageshadow="2"
     inkscape:pageopacity="0.0"
     inkscape:pagecheckerboard="0"
     inkscape:deskcolor="#d1d1d1"
     inkscape:document-units="mm"
     showgrid="false"
     inkscape:zoom="1.0759173"
     inkscape:cx="105.9561"
     inkscape:cy="322.98021"
     inkscape:window-width="1920"
     inkscape:window-height="1052"
     inkscape:window-x="0"
     inkscape:window-y="0"
     inkscape:window-maximized="1"
     inkscape:current-layer="layer1" /><defs
     id="defs7835"><rect
       x="174.03754"
       y="146.15434"
       width="75.981674"
       height="58.089966"
       id="rect964" /><filter
       inkscape:collect="always"
       style="color-interpolation-filters:sRGB"
       id="filter7534"
       x="-0.082088152"
       y="-0.059682727"
       width="1.1641041"
       height="1.1191187"><feGaussianBlur
         inkscape:collect="always"
         stdDeviation="0.73348778"
         id="feGaussianBlur7536" /></filter></defs><g
     inkscape:label="Layer 1"
     inkscape:groupmode="layer"
     id="layer1"
     transform="translate(-26.912239,-21.489041)"><path
       style="fill:#f5f9fe;fill-opacity:1;stroke:#bdcee4;stroke-width:2.124;stroke-linecap:round;stroke-linejoin:round;stroke-dasharray:none;stroke-opacity:1"
       d="m 32.364901,121.40613 70.497489,-0.12764 c 1.97412,-0.004 3.38132,-2.25669 3.38132,-4.07295 V 45.873712 c 0,-0.767133 -0.28287,-1.50291 -0.9547,-2.195329 L 86.139636,23.942142 c -0.64202,-0.661689 -1.47527,-1.391101 -2.56484,-1.391101 H 32.886562 c -2.216752,0 -4.912323,1.777046 -4.912323,4.086358 v 90.378071 c 0,2.11879 1.871678,4.39522 4.390662,4.39066 z"
       id="path6336"
       sodipodi:nodetypes="sssssssssss" /><circle
       style="fill:#4183d6;fill-opacity:1;stroke:#4285d8;stroke-width:2.124;stroke-linecap:round;stroke-linejoin:round;stroke-opacity:1"
       id="path29893"
       cx="41.559135"
       cy="72.971725"
       r="1.4563086" /><text
       xml:space="preserve"
       transform="matrix(2.4944961,0,0,2.0028716,-396.27646,-264.45235)"
       id="text962"
       style="font-size:18.6667px;font-family:calibri;-inkscape-font-specification:calibri;letter-spacing:0px;word-spacing:0px;white-space:pre;shape-inside:url(#rect964);display:inline;fill:#4183d6;fill-opacity:1;stroke:#4285d8;stroke-width:0.950252;stroke-linecap:round;stroke-linejoin:round;stroke-dasharray:none;stroke-opacity:1"><tspan
         x="174.03711"
         y="162.48766"
         id="tspan30326"><tspan
           style="font-family:Calibri;-inkscape-font-specification:Calibri"
           id="tspan30324">?</tspan></tspan></text><path
       style="fill:none;stroke:#b3b3b3;stroke-width:3.224;stroke-linecap:round;stroke-linejoin:round;stroke-dasharray:none"
       d="m 52.280912,72.971729 c 0.491828,0 44.264554,0 44.264554,0"
       id="path1078" /><path
       style="fill:none;stroke:#b3b3b3;stroke-width:3.224;stroke-linecap:round;stroke-linejoin:round;stroke-dasharray:none"
       d="m 52.280912,85.759266 c 0.491828,0 44.264554,0 44.264554,0"
       id="path1188" /><path
       style="fill:#ffffff;fill-opacity:0.996078;stroke:#ffffff;stroke-width:2.29264;stroke-linecap:round;stroke-linejoin:round;stroke-dasharray:none;stroke-opacity:1;filter:url(#filter7534)"
       d="m 61.349459,117.1106 -7.920899,0.19199 c -1.550197,-0.31939 -1.678174,-1.2517 -1.111706,-2.65579 L 68.464366,94.456428 c 0.94995,-1.359632 1.75121,-1.368912 2.55693,-0.03202 l 16.2031,20.030382 c 0.62218,1.42972 0.33838,2.07019 -0.94495,2.46381 l -8.05986,0.096 -0.0278,22.17418 c 0.0483,2.02346 -0.17878,2.6518 -1.86211,2.84778 l -12.67344,0.0319 c -1.567356,0.3111 -2.002686,-0.56262 -1.945481,-1.95184 z"
       id="path7532"
       sodipodi:nodetypes="ccccccccccccc"
       transform="matrix(-1,0,0,-0.85829492,139.54721,222.54875)" /><path
       style="fill:#2e72ce;fill-opacity:0.996078;stroke:#2666b8;stroke-width:2.124;stroke-linecap:round;stroke-linejoin:round;stroke-dasharray:none;stroke-opacity:0.815686"
       d="m 76.36073,121.0552 6.194746,-0.13042 c 1.212372,0.21696 1.31246,0.85028 0.869439,1.80409 L 70.79633,136.44425 c -0.74293,0.9236 -1.36957,0.92991 -1.99971,0.0217 L 56.12456,122.8593 c -0.48659,-0.97121 -0.26464,-1.40629 0.73902,-1.67367 l 6.30343,-0.0652 0.0217,-15.06301 c -0.0378,-1.37453 0.13982,-1.80137 1.45631,-1.9345 l 9.91159,-0.0217 c 1.22579,-0.21133 1.56626,0.38219 1.52152,1.32589 z"
       id="path1647"
       sodipodi:nodetypes="ccccccccccccc" /><path
       style="fill:#2e73ce;fill-opacity:0.996078;stroke:#2766b8;stroke-width:2.124;stroke-linecap:round;stroke-linejoin:round;stroke-dasharray:none;stroke-opacity:0.815686"
       d="m 48.927694,132.74718 -4.184171,-0.0652 c -0.615774,-0.01 -0.918135,0.47188 -0.923777,0.97812 l -0.11955,10.72669 c -0.01949,1.74922 1.193875,2.94653 2.4779,2.94522 l 47.17048,-0.0481 c 2.03082,-0.002 2.81973,-1.29834 2.82802,-2.72043 l 0.0615,-10.54357 c 0.004,-0.67293 -0.44415,-1.49085 -1.44475,-1.49085 h -3.18151 c -0.3632,0 -0.6609,0.20788 -0.6609,0.53794 v 6.82411 c 0,1.0906 -0.79594,1.98269 -2.12101,1.98269 H 51.4708 c -1.748827,0 -2.348417,-0.83274 -2.380089,-2.18199 z"
       id="path6334"
       sodipodi:nodetypes="cssssssssssssssc" /><path
       style="fill:#f5f9fe;fill-opacity:1;stroke:#bdcee4;stroke-width:2.124;stroke-linecap:round;stroke-linejoin:round;stroke-dasharray:none;stroke-opacity:1"
       d="m 84.878956,40.439727 c -0.0487,2.121568 0.89897,4.274235 3.73858,4.260246 L 106.26713,44.613023 85.270196,23.398738 Z"
       id="path7592"
       sodipodi:nodetypes="ssccs" /><circle
       style="fill:#4183d6;fill-opacity:1;stroke:#4285d8;stroke-width:2.124;stroke-linecap:round;stroke-linejoin:round;stroke-opacity:1"
       id="path29893-3"
       cx="41.559135"
       cy="85.75927"
       r="1.4563086" /></g></svg>
